STARTFONT 2.1
COMMENT Recovered from s30chs.qfasl (MIT CADR System 46 serialized QFASL FONT object)
FONT MIT-CADR-QFASL-S30CHS
SIZE 30 72 72
FONTBOUNDINGBOX 30 30 0 0
STARTPROPERTIES 2
FONT_ASCENT 30
FONT_DESCENT 0
ENDPROPERTIES
CHARS 128
STARTCHAR C0000
ENCODING -1 0
SWIDTH 1000 0
DWIDTH 30 0
BBX 30 30 0 0
BITMAP
00000000
00000000
00000000
00000000
00000000
00000000
00000000
00000000
00000000
00000000
00000000
00000000
00000000
00000000
00000000
00000000
00000000
00000000
00000000
00000000
00000000
00000000
00000000
00000000
00000000
00000000
00000000
00000000
00000000
00000000
ENDCHAR
STARTCHAR C0001
ENCODING -1 1
SWIDTH 1000 0
DWIDTH 30 0
BBX 30 30 0 0
BITMAP
00000000
00000000
00000000
00000000
00000000
00000000
00000000
00000000
00000000
00000000
00000000
00000000
00000000
00000000
00000000
00000000
00000000
00000000
00000000
00000000
00000000
00000000
00000000
00000000
00000000
00000000
00000000
00000000
00000000
00000000
ENDCHAR
STARTCHAR C0002
ENCODING -1 2
SWIDTH 1000 0
DWIDTH 30 0
BBX 30 30 0 0
BITMAP
00000000
00000000
00000000
00000000
00000000
00000000
00000000
00000000
00000000
00000000
00000000
00000000
00000000
00000000
00000000
00000000
00000000
00000000
00000000
00000000
00000000
00000000
00000000
00000000
00000000
00000000
00000000
00000000
00000000
00000000
ENDCHAR
STARTCHAR C0003
ENCODING -1 3
SWIDTH 1000 0
DWIDTH 30 0
BBX 30 30 0 0
BITMAP
00000000
00000000
00000000
00000000
00000000
00000000
00000000
00000000
00000000
00000000
00000000
00000000
00000000
00000000
00000000
00000000
00000000
00000000
00000000
00000000
00000000
00000000
00000000
00000000
00000000
00000000
00000000
00000000
00000000
00000000
ENDCHAR
STARTCHAR C0004
ENCODING -1 4
SWIDTH 1000 0
DWIDTH 30 0
BBX 30 30 0 0
BITMAP
00000000
00000000
00000000
00000000
00000000
00000000
00000000
00000000
00000000
00000000
00000000
00000000
00000000
00000000
00000000
00000000
00000000
00000000
00000000
00000000
00000000
00000000
00000000
00000000
00000000
00000000
00000000
00000000
00000000
00000000
ENDCHAR
STARTCHAR C0005
ENCODING -1 5
SWIDTH 1000 0
DWIDTH 30 0
BBX 30 30 0 0
BITMAP
00000000
00000000
00000000
00000000
00000000
00000000
00000000
00000000
00000000
00000000
00000000
00000000
00000000
00000000
00000000
00000000
00000000
00000000
00000000
00000000
00000000
00000000
00000000
00000000
00000000
00000000
00000000
00000000
00000000
00000000
ENDCHAR
STARTCHAR C0006
ENCODING -1 6
SWIDTH 1000 0
DWIDTH 30 0
BBX 30 30 0 0
BITMAP
00000000
00000000
00000000
00000000
00000000
00000000
00000000
00000000
00000000
00000000
00000000
00000000
00000000
00000000
00000000
00000000
00000000
00000000
00000000
00000000
00000000
00000000
00000000
00000000
00000000
00000000
00000000
00000000
00000000
00000000
ENDCHAR
STARTCHAR C0007
ENCODING -1 7
SWIDTH 1000 0
DWIDTH 30 0
BBX 30 30 0 0
BITMAP
00000000
00000000
00000000
00000000
00000000
00000000
00000000
00000000
00000000
00000000
00000000
00000000
00000000
00000000
00000000
00000000
00000000
00000000
00000000
00000000
00000000
00000000
00000000
00000000
00000000
00000000
00000000
00000000
00000000
00000000
ENDCHAR
STARTCHAR C0008
ENCODING -1 8
SWIDTH 1000 0
DWIDTH 30 0
BBX 30 30 0 0
BITMAP
00000000
00000000
00000000
00000000
00000000
00000000
00000000
00000000
00000000
00000000
00000000
00000000
00000000
00000000
00000000
00000000
00000000
00000000
00000000
00000000
00000000
00000000
00000000
00000000
00000000
00000000
00000000
00000000
00000000
00000000
ENDCHAR
STARTCHAR C0009
ENCODING -1 9
SWIDTH 1000 0
DWIDTH 30 0
BBX 30 30 0 0
BITMAP
00000000
00000000
00000000
00000000
00000000
00000000
00000000
00000000
00000000
00000000
00000000
00000000
00000000
00000000
00000000
00000000
00000000
00000000
00000000
00000000
00000000
00000000
00000000
00000000
00000000
00000000
00000000
00000000
00000000
00000000
ENDCHAR
STARTCHAR C000A
ENCODING -1 10
SWIDTH 1000 0
DWIDTH 30 0
BBX 30 30 0 0
BITMAP
00000000
00000000
00000000
00000000
00000000
00000000
00000000
00000000
00000000
00000000
00000000
00000000
00000000
00000000
00000000
00000000
00000000
00000000
00000000
00000000
00000000
00000000
00000000
00000000
00000000
00000000
00000000
00000000
00000000
00000000
ENDCHAR
STARTCHAR C000B
ENCODING -1 11
SWIDTH 1000 0
DWIDTH 30 0
BBX 30 30 0 0
BITMAP
00000000
00000000
00000000
00000000
00000000
00000000
00000000
00000000
00000000
00000000
00000000
00000000
00000000
00000000
00000000
00000000
00000000
00000000
00000000
00000000
00000000
00000000
00000000
00000000
00000000
00000000
00000000
00000000
00000000
00000000
ENDCHAR
STARTCHAR C000C
ENCODING -1 12
SWIDTH 1000 0
DWIDTH 30 0
BBX 30 30 0 0
BITMAP
00000000
00000000
00000000
00000000
00000000
00000000
00000000
00000000
00000000
00000000
00000000
00000000
00000000
00000000
00000000
00000000
00000000
00000000
00000000
00000000
00000000
00000000
00000000
00000000
00000000
00000000
00000000
00000000
00000000
00000000
ENDCHAR
STARTCHAR C000D
ENCODING -1 13
SWIDTH 1000 0
DWIDTH 30 0
BBX 30 30 0 0
BITMAP
00000000
00000000
00000000
00000000
00000000
00000000
00000000
00000000
00000000
00000000
00000000
00000000
00000000
00000000
00000000
00000000
00000000
00000000
00000000
00000000
00000000
00000000
00000000
00000000
00000000
00000000
00000000
00000000
00000000
00000000
ENDCHAR
STARTCHAR C000E
ENCODING -1 14
SWIDTH 1000 0
DWIDTH 30 0
BBX 30 30 0 0
BITMAP
00000000
00000000
00000000
00000000
00000000
00000000
00000000
00000000
00000000
00000000
00000000
00000000
00000000
00000000
00000000
00000000
00000000
00000000
00000000
00000000
00000000
00000000
00000000
00000000
00000000
00000000
00000000
00000000
00000000
00000000
ENDCHAR
STARTCHAR C000F
ENCODING -1 15
SWIDTH 1000 0
DWIDTH 30 0
BBX 30 30 0 0
BITMAP
00000000
00000000
00000000
00000000
00000000
00000000
00000000
00000000
00000000
00000000
00000000
00000000
00000000
00000000
00000000
00000000
00000000
00000000
00000000
00000000
00000000
00000000
00000000
00000000
00000000
00000000
00000000
00000000
00000000
00000000
ENDCHAR
STARTCHAR C0010
ENCODING -1 16
SWIDTH 1000 0
DWIDTH 30 0
BBX 30 30 0 0
BITMAP
00000000
00000000
00000000
00000000
00000000
00000000
00000000
00000000
00000000
00000000
00000000
00000000
00000000
00000000
00000000
00000000
00000000
00000000
00000000
00000000
00000000
00000000
00000000
00000000
00000000
00000000
00000000
00000000
00000000
00000000
ENDCHAR
STARTCHAR C0011
ENCODING -1 17
SWIDTH 1000 0
DWIDTH 30 0
BBX 30 30 0 0
BITMAP
00000000
00000000
00000000
00000000
00000000
00000000
00000000
00000000
00000000
00000000
00000000
00000000
00000000
00000000
00000000
00000000
00000000
00000000
00000000
00000000
00000000
00000000
00000000
00000000
00000000
00000000
00000000
00000000
00000000
00000000
ENDCHAR
STARTCHAR C0012
ENCODING -1 18
SWIDTH 1000 0
DWIDTH 30 0
BBX 30 30 0 0
BITMAP
00000000
00000000
00000000
00000000
00000000
00000000
00000000
00000000
00000000
00000000
00000000
00000000
00000000
00000000
00000000
00000000
00000000
00000000
00000000
00000000
00000000
00000000
00000000
00000000
00000000
00000000
00000000
00000000
00000000
00000000
ENDCHAR
STARTCHAR C0013
ENCODING -1 19
SWIDTH 1000 0
DWIDTH 30 0
BBX 30 30 0 0
BITMAP
00000000
00000000
00000000
00000000
00000000
00000000
00000000
00000000
00000000
00000000
00000000
00000000
00000000
00000000
00000000
00000000
00000000
00000000
00000000
00000000
00000000
00000000
00000000
00000000
00000000
00000000
00000000
00000000
00000000
00000000
ENDCHAR
STARTCHAR C0014
ENCODING -1 20
SWIDTH 1000 0
DWIDTH 30 0
BBX 30 30 0 0
BITMAP
00000000
00000000
00000000
00000000
00000000
00000000
00000000
00000000
00000000
00000000
00000000
00000000
00000000
00000000
00000000
00000000
00000000
00000000
00000000
00000000
00000000
00000000
00000000
00000000
00000000
00000000
00000000
00000000
00000000
00000000
ENDCHAR
STARTCHAR C0015
ENCODING -1 21
SWIDTH 1000 0
DWIDTH 30 0
BBX 30 30 0 0
BITMAP
00000000
00000000
00000000
00000000
00000000
00000000
00000000
00000000
00000000
00000000
00000000
00000000
00000000
00000000
00000000
00000000
00000000
00000000
00000000
00000000
00000000
00000000
00000000
00000000
00000000
00000000
00000000
00000000
00000000
00000000
ENDCHAR
STARTCHAR C0016
ENCODING -1 22
SWIDTH 1000 0
DWIDTH 30 0
BBX 30 30 0 0
BITMAP
00000000
00000000
00000000
00000000
00000000
00000000
00000000
00000000
00000000
00000000
00000000
00000000
00000000
00000000
00000000
00000000
00000000
00000000
00000000
00000000
00000000
00000000
00000000
00000000
00000000
00000000
00000000
00000000
00000000
00000000
ENDCHAR
STARTCHAR C0017
ENCODING -1 23
SWIDTH 1000 0
DWIDTH 30 0
BBX 30 30 0 0
BITMAP
00000000
00000000
00000000
00000000
00000000
00000000
00000000
00000000
00000000
00000000
00000000
00000000
00000000
00000000
00000000
00000000
00000000
00000000
00000000
00000000
00000000
00000000
00000000
00000000
00000000
00000000
00000000
00000000
00000000
00000000
ENDCHAR
STARTCHAR C0018
ENCODING -1 24
SWIDTH 1000 0
DWIDTH 30 0
BBX 30 30 0 0
BITMAP
00000000
00000000
00000000
00000000
00000000
00000000
00000000
00000000
00000000
00000000
00000000
00000000
00000000
00000000
00000000
00000000
00000000
00000000
00000000
00000000
00000000
00000000
00000000
00000000
00000000
00000000
00000000
00000000
00000000
00000000
ENDCHAR
STARTCHAR C0019
ENCODING -1 25
SWIDTH 1000 0
DWIDTH 30 0
BBX 30 30 0 0
BITMAP
00000000
00000000
00000000
00000000
00000000
00000000
00000000
00000000
00000000
00000000
00000000
00000000
00000000
00000000
00000000
00000000
00000000
00000000
00000000
00000000
00000000
00000000
00000000
00000000
00000000
00000000
00000000
00000000
00000000
00000000
ENDCHAR
STARTCHAR C001A
ENCODING -1 26
SWIDTH 1000 0
DWIDTH 30 0
BBX 30 30 0 0
BITMAP
00000000
00000000
00000000
00000000
00000000
00000000
00000000
00000000
00000000
00000000
00000000
00000000
00000000
00000000
00000000
00000000
00000000
00000000
00000000
00000000
00000000
00000000
00000000
00000000
00000000
00000000
00000000
00000000
00000000
00000000
ENDCHAR
STARTCHAR C001B
ENCODING -1 27
SWIDTH 1000 0
DWIDTH 30 0
BBX 30 30 0 0
BITMAP
00000000
00000000
00000000
00000000
00000000
00000000
00000000
00000000
00000000
00000000
00000000
00000000
00000000
00000000
00000000
00000000
00000000
00000000
00000000
00000000
00000000
00000000
00000000
00000000
00000000
00000000
00000000
00000000
00000000
00000000
ENDCHAR
STARTCHAR C001C
ENCODING -1 28
SWIDTH 1000 0
DWIDTH 30 0
BBX 30 30 0 0
BITMAP
00000000
00000000
00000000
00000000
00000000
00000000
00000000
00000000
00000000
00000000
00000000
00000000
00000000
00000000
00000000
00000000
00000000
00000000
00000000
00000000
00000000
00000000
00000000
00000000
00000000
00000000
00000000
00000000
00000000
00000000
ENDCHAR
STARTCHAR C001D
ENCODING -1 29
SWIDTH 1000 0
DWIDTH 30 0
BBX 30 30 0 0
BITMAP
00000000
00000000
00000000
00000000
00000000
00000000
00000000
00000000
00000000
00000000
00000000
00000000
00000000
00000000
00000000
00000000
00000000
00000000
00000000
00000000
00000000
00000000
00000000
00000000
00000000
00000000
00000000
00000000
00000000
00000000
ENDCHAR
STARTCHAR C001E
ENCODING -1 30
SWIDTH 1000 0
DWIDTH 30 0
BBX 30 30 0 0
BITMAP
00000000
00000000
00000000
00000000
00000000
00000000
00000000
00000000
00000000
00000000
00000000
00000000
00000000
00000000
00000000
00000000
00000000
00000000
00000000
00000000
00000000
00000000
00000000
00000000
00000000
00000000
00000000
00000000
00000000
00000000
ENDCHAR
STARTCHAR C001F
ENCODING -1 31
SWIDTH 1000 0
DWIDTH 30 0
BBX 30 30 0 0
BITMAP
00000000
00000000
00000000
00000000
00000000
00000000
00000000
00000000
00000000
00000000
00000000
00000000
00000000
00000000
00000000
00000000
00000000
00000000
00000000
00000000
00000000
00000000
00000000
00000000
00000000
00000000
00000000
00000000
00000000
00000000
ENDCHAR
STARTCHAR C0020
ENCODING -1 32
SWIDTH 1000 0
DWIDTH 30 0
BBX 30 30 0 0
BITMAP
00000000
00000000
00000000
00000000
00000000
00000000
00000000
00000000
00000000
00000000
00000000
00000000
00000000
00000000
00000000
00000000
00000000
00000000
00000000
00000000
00000000
00000000
00000000
00000000
00000000
00000000
00000000
00000000
00000000
00000000
ENDCHAR
STARTCHAR C0021
ENCODING -1 33
SWIDTH 1000 0
DWIDTH 30 0
BBX 30 30 0 0
BITMAP
00000000
00000000
00000000
00000000
00000000
00000000
00000000
00000000
00000000
00000000
00000000
00000000
00000000
00000000
00000000
00000000
00000000
00000000
00000000
00000000
00000000
00000000
00000000
00000000
00000000
00000000
00000000
00000000
00000000
00000000
ENDCHAR
STARTCHAR C0022
ENCODING -1 34
SWIDTH 1000 0
DWIDTH 30 0
BBX 30 30 0 0
BITMAP
00000000
00000000
00000000
00000000
00000000
00000000
00000000
00000000
00000000
00000000
00000000
00000000
00000000
00000000
00000000
00000000
00000000
00000000
00000000
00000000
00000000
00000000
00000000
00000000
00000000
00000000
00000000
00000000
00000000
00000000
ENDCHAR
STARTCHAR C0023
ENCODING -1 35
SWIDTH 1000 0
DWIDTH 30 0
BBX 30 30 0 0
BITMAP
00000000
00000000
00000000
00000000
00000000
00000000
00000000
00000000
00000000
00000000
00000000
00000000
00000000
00000000
00000000
00000000
00000000
00000000
00000000
00000000
00000000
00000000
00000000
00000000
00000000
00000000
00000000
00000000
00000000
00000000
ENDCHAR
STARTCHAR C0024
ENCODING -1 36
SWIDTH 1000 0
DWIDTH 30 0
BBX 30 30 0 0
BITMAP
00000000
00000000
00000000
00000000
00000000
00000000
00000000
00000000
00000000
00000000
00000000
00000000
00000000
00000000
00000000
00000000
00000000
00000000
00000000
00000000
00000000
00000000
00000000
00000000
00000000
00000000
00000000
00000000
00000000
00000000
ENDCHAR
STARTCHAR C0025
ENCODING -1 37
SWIDTH 1000 0
DWIDTH 30 0
BBX 30 30 0 0
BITMAP
00000000
00000000
00000000
00000000
00000000
00000000
00000000
00000000
00000000
00000000
00000000
00000000
00000000
00000000
00000000
00000000
00000000
00000000
00000000
00000000
00000000
00000000
00000000
00000000
00000000
00000000
00000000
00000000
00000000
00000000
ENDCHAR
STARTCHAR C0026
ENCODING -1 38
SWIDTH 1000 0
DWIDTH 30 0
BBX 30 30 0 0
BITMAP
00000000
00000000
00000000
00000000
00000000
00000000
00000000
00000000
00000000
00000000
00000000
00000000
00000000
00000000
00000000
00000000
00000000
00000000
00000000
00000000
00000000
00000000
00000000
00000000
00000000
00000000
00000000
00000000
00000000
00000000
ENDCHAR
STARTCHAR C0027
ENCODING -1 39
SWIDTH 1000 0
DWIDTH 30 0
BBX 30 30 0 0
BITMAP
00000000
00000000
00000000
00000000
00000000
00000000
00000000
00000000
00000000
00000000
00000000
00000000
00000000
00000000
00000000
00000000
00000000
00000000
00000000
00000000
00000000
00000000
00000000
00000000
00000000
00000000
00000000
00000000
00000000
00000000
ENDCHAR
STARTCHAR C0028
ENCODING -1 40
SWIDTH 1000 0
DWIDTH 30 0
BBX 30 30 0 0
BITMAP
00000000
00000000
00000000
00000000
00000000
00000000
00000000
00000000
00000000
00000000
00000000
00000000
00000000
00000000
00000000
00000000
00000000
00000000
00000000
00000000
00000000
00000000
00000000
00000000
00000000
00000000
00000000
00000000
00000000
00000000
ENDCHAR
STARTCHAR C0029
ENCODING -1 41
SWIDTH 1000 0
DWIDTH 30 0
BBX 30 30 0 0
BITMAP
00000000
00000000
00000000
00000000
00000000
00000000
00000000
00000000
00000000
00000000
00000000
00000000
00000000
00000000
00000000
00000000
00000000
00000000
00000000
00000000
00000000
00000000
00000000
00000000
00000000
00000000
00000000
00000000
00000000
00000000
ENDCHAR
STARTCHAR C002A
ENCODING -1 42
SWIDTH 1000 0
DWIDTH 30 0
BBX 30 30 0 0
BITMAP
00000000
00000000
00000000
00000000
00000000
00000000
00000000
00000000
00000000
00000000
00000000
00000000
00000000
00000000
00000000
00000000
00000000
00000000
00000000
00000000
00000000
00000000
00000000
00000000
00000000
00000000
00000000
00000000
00000000
00000000
ENDCHAR
STARTCHAR C002B
ENCODING -1 43
SWIDTH 1000 0
DWIDTH 30 0
BBX 30 30 0 0
BITMAP
00000000
00000000
00000000
00000000
00000000
00000000
00000000
00000000
00000000
00000000
00000000
00000000
00000000
00000000
00000000
00000000
00000000
00000000
00000000
00000000
00000000
00000000
00000000
00000000
00000000
00000000
00000000
00000000
00000000
00000000
ENDCHAR
STARTCHAR C002C
ENCODING -1 44
SWIDTH 1000 0
DWIDTH 30 0
BBX 30 30 0 0
BITMAP
00000000
00000000
00000000
00000000
00000000
00000000
00000000
00000000
00000000
00000000
00000000
00000000
00000000
00000000
00000000
00000000
00000000
00000000
00000000
00000000
00000000
00000000
00000000
00000000
00000000
00000000
00000000
00000000
00000000
00000000
ENDCHAR
STARTCHAR C002D
ENCODING -1 45
SWIDTH 1000 0
DWIDTH 30 0
BBX 30 30 0 0
BITMAP
00000000
00000000
00000000
00000000
00000000
00000000
00000000
00000000
00000000
00000000
00000000
00000000
00000000
00000000
00000000
00000000
00000000
00000000
00000000
00000000
00000000
00000000
00000000
00000000
00000000
00000000
00000000
00000000
00000000
00000000
ENDCHAR
STARTCHAR C002E
ENCODING -1 46
SWIDTH 1000 0
DWIDTH 30 0
BBX 30 30 0 0
BITMAP
00000000
00000000
00000000
00000000
00000000
00000000
00000000
00000000
00000000
00000000
00000000
00000000
00000000
00000000
00000000
00000000
00000000
00000000
00000000
00000000
00000000
00000000
00000000
00000000
00000000
00000000
00000000
00000000
00000000
00000000
ENDCHAR
STARTCHAR C002F
ENCODING -1 47
SWIDTH 1000 0
DWIDTH 30 0
BBX 30 30 0 0
BITMAP
00000000
00000000
00000000
00000000
00000000
00000000
00000000
00000000
00000000
00000000
00000000
00000000
00000000
00000000
00000000
00000000
00000000
00000000
00000000
00000000
00000000
00000000
00000000
00000000
00000000
00000000
00000000
00000000
00000000
00000000
ENDCHAR
STARTCHAR C0030
ENCODING -1 48
SWIDTH 1000 0
DWIDTH 30 0
BBX 30 30 0 0
BITMAP
00000000
00000000
00000000
00000000
00000000
00000000
00000000
00000000
00000000
00000000
00000000
00000000
00000000
00000000
00000000
00000000
00000000
00000000
00000000
00000000
00000000
00000000
00000000
00000000
00000000
00000000
00000000
00000000
00000000
00000000
ENDCHAR
STARTCHAR C0031
ENCODING -1 49
SWIDTH 1000 0
DWIDTH 30 0
BBX 30 30 0 0
BITMAP
86186184
0C30C30C
18618618
30C30C30
61861860
C30C30C0
86186184
0C30C30C
18618618
30C30C30
61861860
C30C30C0
86186184
0C30C30C
18618618
30C30C30
61861860
C30C30C0
86186184
0C30C30C
18618618
30C30C30
61861860
C30C30C0
86186184
0C30C30C
18618618
30C30C30
61861860
C30C30C0
ENDCHAR
STARTCHAR C0032
ENCODING -1 50
SWIDTH 1000 0
DWIDTH 30 0
BBX 30 30 0 0
BITMAP
00000000
00000000
00000000
00000000
00000000
00000000
00000000
00000000
00000000
00000000
00000000
00000000
00000000
00000000
00000000
00000000
00000000
00000000
00000000
00000000
00000000
00000000
00000000
00000000
00000000
00000000
00000000
00000000
00000000
00000000
ENDCHAR
STARTCHAR C0033
ENCODING -1 51
SWIDTH 1000 0
DWIDTH 30 0
BBX 30 30 0 0
BITMAP
00000000
00000000
00000000
00000000
00000000
00000000
00000000
00000000
00000000
00000000
00000000
00000000
00000000
00000000
00000000
00000000
00000000
00000000
00000000
00000000
00000000
00000000
00000000
00000000
00000000
00000000
00000000
00000000
00000000
00000000
ENDCHAR
STARTCHAR C0034
ENCODING -1 52
SWIDTH 1000 0
DWIDTH 30 0
BBX 30 30 0 0
BITMAP
00000000
00000000
00000000
00000000
00000000
00000000
00000000
00000000
00000000
00000000
00000000
00000000
00000000
00000000
00000000
00000000
00000000
00000000
00000000
00000000
00000000
00000000
00000000
00000000
00000000
00000000
00000000
00000000
00000000
00000000
ENDCHAR
STARTCHAR C0035
ENCODING -1 53
SWIDTH 1000 0
DWIDTH 30 0
BBX 30 30 0 0
BITMAP
00000000
00000000
00000000
00000000
00000000
00000000
00000000
00000000
00000000
00000000
00000000
00000000
00000000
00000000
00000000
00000000
00000000
00000000
00000000
00000000
00000000
00000000
00000000
00000000
00000000
00000000
00000000
00000000
00000000
00000000
ENDCHAR
STARTCHAR C0036
ENCODING -1 54
SWIDTH 1000 0
DWIDTH 30 0
BBX 30 30 0 0
BITMAP
00000000
00000000
00000000
00000000
00000000
00000000
00000000
00000000
00000000
00000000
00000000
00000000
00000000
00000000
00000000
00000000
00000000
00000000
00000000
00000000
00000000
00000000
00000000
00000000
00000000
00000000
00000000
00000000
00000000
00000000
ENDCHAR
STARTCHAR C0037
ENCODING -1 55
SWIDTH 1000 0
DWIDTH 30 0
BBX 30 30 0 0
BITMAP
00000000
00000000
00000000
00000000
00000000
00000000
00000000
00000000
00000000
00000000
00000000
00000000
00000000
00000000
00000000
00000000
00000000
00000000
00000000
00000000
00000000
00000000
00000000
00000000
00000000
00000000
00000000
00000000
00000000
00000000
ENDCHAR
STARTCHAR C0038
ENCODING -1 56
SWIDTH 1000 0
DWIDTH 30 0
BBX 30 30 0 0
BITMAP
00000000
00000000
00000000
00000000
00000000
00000000
00000000
00000000
00000000
00000000
00000000
00000000
00000000
00000000
00000000
00000000
00000000
00000000
00000000
00000000
00000000
00000000
00000000
00000000
00000000
00000000
00000000
00000000
00000000
00000000
ENDCHAR
STARTCHAR C0039
ENCODING -1 57
SWIDTH 1000 0
DWIDTH 30 0
BBX 30 30 0 0
BITMAP
00000000
00000000
00000000
00000000
00000000
00000000
00000000
00000000
00000000
00000000
00000000
00000000
00000000
00000000
00000000
00000000
00000000
00000000
00000000
00000000
00000000
00000000
00000000
00000000
00000000
00000000
00000000
00000000
00000000
00000000
ENDCHAR
STARTCHAR C003A
ENCODING -1 58
SWIDTH 1000 0
DWIDTH 30 0
BBX 30 30 0 0
BITMAP
00000000
00000000
00000000
00000000
00000000
00000000
00000000
00000000
00000000
00000000
00000000
00000000
00000000
00000000
00000000
00000000
00000000
00000000
00000000
00000000
00000000
00000000
00000000
00000000
00000000
00000000
00000000
00000000
00000000
00000000
ENDCHAR
STARTCHAR C003B
ENCODING -1 59
SWIDTH 1000 0
DWIDTH 30 0
BBX 30 30 0 0
BITMAP
00000000
00000000
00000000
00000000
00000000
00000000
00000000
00000000
00000000
00000000
00000000
00000000
00000000
00000000
00000000
00000000
00000000
00000000
00000000
00000000
00000000
00000000
00000000
00000000
00000000
00000000
00000000
00000000
00000000
00000000
ENDCHAR
STARTCHAR C003C
ENCODING -1 60
SWIDTH 1000 0
DWIDTH 30 0
BBX 30 30 0 0
BITMAP
00000000
00000000
00000000
00000000
00000000
00000000
00000000
00000000
00000000
00000000
00000000
00000000
00000000
00000000
00000000
00000000
00000000
00000000
00000000
00000000
00000000
00000000
00000000
00000000
00000000
00000000
00000000
00000000
00000000
00000000
ENDCHAR
STARTCHAR C003D
ENCODING -1 61
SWIDTH 1000 0
DWIDTH 30 0
BBX 30 30 0 0
BITMAP
00000000
00000000
00000000
00000000
00000000
00000000
00000000
00000000
00000000
00000000
00000000
00000000
00000000
00000000
00000000
00000000
00000000
00000000
00000000
00000000
00000000
00000000
00000000
00000000
00000000
00000000
00000000
00000000
00000000
00000000
ENDCHAR
STARTCHAR C003E
ENCODING -1 62
SWIDTH 1000 0
DWIDTH 30 0
BBX 30 30 0 0
BITMAP
00000000
00000000
00000000
00000000
00000000
00000000
00000000
00000000
00000000
00000000
00000000
00000000
00000000
00000000
00000000
00000000
00000000
00000000
00000000
00000000
00000000
00000000
00000000
00000000
00000000
00000000
00000000
00000000
00000000
00000000
ENDCHAR
STARTCHAR C003F
ENCODING -1 63
SWIDTH 1000 0
DWIDTH 30 0
BBX 30 30 0 0
BITMAP
00000000
00000000
00000000
00000000
00000000
00000000
00000000
00000000
00000000
00000000
00000000
00000000
00000000
00000000
00000000
00000000
00000000
00000000
00000000
00000000
00000000
00000000
00000000
00000000
00000000
00000000
00000000
00000000
00000000
00000000
ENDCHAR
STARTCHAR C0040
ENCODING -1 64
SWIDTH 1000 0
DWIDTH 30 0
BBX 30 30 0 0
BITMAP
00000000
00000000
00000000
00070000
00050000
001DC000
00104000
001DC000
00050000
00E53800
031DC600
04070100
08020080
08020080
10020040
10000040
10E03840
11104440
09104480
09088480
08888880
07FFFF00
04000100
04421100
04421100
04000100
07FFFF00
00000000
00000000
00000000
ENDCHAR
STARTCHAR C0041
ENCODING -1 65
SWIDTH 1000 0
DWIDTH 30 0
BBX 30 30 0 0
BITMAP
86186184
0C30C30C
18600618
30C70C30
61851860
C31DC0C0
86104184
0C1DC30C
18050018
30E53830
631DC660
C4070100
88020084
0802008C
10020058
10000040
50E03840
D1104440
89104484
0908848C
08888898
27FFFF30
64000120
C4421100
84421104
0400010C
17FFFF18
30000030
60000060
C30C30C0
ENDCHAR
STARTCHAR C0042
ENCODING -1 66
SWIDTH 1000 0
DWIDTH 30 0
BBX 30 30 0 0
BITMAP
00000000
00000000
00000000
00000000
00000000
00000000
00000000
00000000
0C000180
0E000380
06202300
06306300
0618C300
0618C300
0618C300
0618C300
0318C600
0318C600
03174600
033FE600
02E03A00
03FFFE00
02000200
02222200
02222200
02000200
03FFFE00
00000000
00000000
00000000
ENDCHAR
STARTCHAR C0043
ENCODING -1 67
SWIDTH 1000 0
DWIDTH 30 0
BBX 30 30 0 0
BITMAP
86186184
0C30C30C
18618618
30C30C30
61861860
C00C3000
80000004
0000000C
0C000188
0E000380
46202300
C6306300
8618C304
0618C30C
0618C318
0618C310
4318C600
C318C600
83174604
033FE60C
02E03A18
03FFFE30
42000220
C2222200
82222204
0200020C
03FFFE18
00000030
60000060
C30C30C0
ENDCHAR
STARTCHAR C0044
ENCODING -1 68
SWIDTH 1000 0
DWIDTH 30 0
BBX 30 30 0 0
BITMAP
00000000
00000000
00000000
00000000
00000000
00000000
01C71C00
0138E400
01000400
01000400
01000400
01FFFC00
00104000
00202000
00202000
00401000
00401000
00800800
00800800
01000400
01000400
02000200
02000200
02000200
03FFFE00
02000200
03FFFE00
00000000
00000000
00000000
ENDCHAR
STARTCHAR C0045
ENCODING -1 69
SWIDTH 1000 0
DWIDTH 30 0
BBX 30 30 0 0
BITMAP
86186184
0C30C30C
18618618
30000030
60000060
C0000040
81C71C04
0138E40C
11000418
31000430
61000460
C1FFFCC0
80104004
0820200C
18202018
30401030
60401060
C08008C0
80800804
0100040C
01000418
22000210
62000200
C2000200
83FFFE04
0200020C
03FFFE18
00000030
40000060
C30C30C0
ENDCHAR
STARTCHAR C0046
ENCODING -1 70
SWIDTH 1000 0
DWIDTH 30 0
BBX 30 30 0 0
BITMAP
00000000
00000000
00000000
00000000
00020000
00070000
00088000
00104000
00204000
00208000
00410000
00413000
00419000
00401000
00401000
00401000
00421000
00471000
00222000
00222000
00202000
00104000
00104000
00088000
00088000
00050000
03FFFE00
00000000
00000000
00000000
ENDCHAR
STARTCHAR C0047
ENCODING -1 71
SWIDTH 1000 0
DWIDTH 30 0
BBX 30 30 0 0
BITMAP
86186184
0C30C30C
18600618
30C00C30
61820060
C30700C0
86088184
0C10430C
18204018
30208030
60410060
C04130C0
8441D184
0C40110C
18401018
30401030
60421060
C04710C0
86222184
0C22230C
18202018
30104030
60104060
C00880C0
80088004
0005000C
03FFFE18
00000000
40000000
C30C30C0
ENDCHAR
STARTCHAR C0048
ENCODING -1 72
SWIDTH 1000 0
DWIDTH 30 0
BBX 30 30 0 0
BITMAP
00000000
00000000
00000000
00000000
00000000
00000000
003C0000
00130000
00108000
00204000
00482000
00881000
01000800
02000400
04000400
040C0200
08320200
08C20200
07040100
00080100
00100100
00600080
00800080
03000080
04000080
08000080
0FFFFF80
00000000
00000000
00000000
ENDCHAR
STARTCHAR C0049
ENCODING -1 73
SWIDTH 1000 0
DWIDTH 30 0
BBX 30 30 0 0
BITMAP
86186184
0C30C30C
18618618
30C00C30
61801860
C30000C0
863C0184
0C13030C
18108218
30204030
60482060
C08810C0
81000804
0200040C
04000418
040C0230
08320220
88C20200
87040104
0008010C
00100118
00600080
40800080
C3000080
84000084
0800008C
0FFFFF98
00000000
40000000
C30C30C0
ENDCHAR
STARTCHAR C004A
ENCODING -1 74
SWIDTH 1000 0
DWIDTH 30 0
BBX 30 30 0 0
BITMAP
00000000
00000000
00000000
00000000
00000000
00000000
00000000
00000000
00070000
0018C000
00104000
00202000
00202000
00202000
00104000
00104000
000F8000
00088000
00088000
00104000
00104000
00104000
00104000
00603000
01800C00
02000200
03FFFE00
00000000
00000000
00000000
ENDCHAR
STARTCHAR C004B
ENCODING -1 75
SWIDTH 1000 0
DWIDTH 30 0
BBX 30 30 0 0
BITMAP
86186184
0C30C30C
18618618
30C30C30
61861860
C30C30C0
86000184
0C00030C
18070618
3018C030
61104060
C32020C0
86202184
0C20230C
18104218
30104030
610F8060
C30880C0
86088184
0C10430C
18104218
30104030
60104060
C0603000
81800C04
0200020C
03FFFE18
20000030
60000060
C30C30C0
ENDCHAR
STARTCHAR C004C
ENCODING -1 76
SWIDTH 1000 0
DWIDTH 30 0
BBX 30 30 0 0
BITMAP
00000000
00000000
00000000
00000000
00000000
00000000
00000000
00000000
00000000
00000000
00000000
00000000
00000000
00000000
00000000
00000000
00000000
00000000
00000000
00000000
00000000
00000000
00000000
00000000
00000000
00000000
00000000
00000000
00000000
00000000
ENDCHAR
STARTCHAR C004D
ENCODING -1 77
SWIDTH 1000 0
DWIDTH 30 0
BBX 30 30 0 0
BITMAP
00000000
00000000
00000000
00000000
00000000
00000000
00000000
00000000
00000000
00000000
00000000
00000000
00000000
00000000
00000000
00000000
00000000
00000000
00000000
00000000
00000000
00000000
00000000
00000000
00000000
00000000
00000000
00000000
00000000
00000000
ENDCHAR
STARTCHAR C004E
ENCODING -1 78
SWIDTH 1000 0
DWIDTH 30 0
BBX 30 30 0 0
BITMAP
00000000
00000000
00000000
00000000
00000000
00000000
00000000
00000000
00000000
00000000
00000000
00000000
00000000
00000000
00000000
00000000
00000000
00000000
00000000
00000000
00000000
00000000
00000000
00000000
00000000
00000000
00000000
00000000
00000000
00000000
ENDCHAR
STARTCHAR C004F
ENCODING -1 79
SWIDTH 1000 0
DWIDTH 30 0
BBX 30 30 0 0
BITMAP
00000000
00000000
00000000
00000000
00000000
00000000
00000000
00000000
00000000
00000000
00000000
00000000
00000000
00000000
00000000
00000000
00000000
00000000
00000000
00000000
00000000
00000000
00000000
00000000
00000000
00000000
00000000
00000000
00000000
00000000
ENDCHAR
STARTCHAR C0050
ENCODING -1 80
SWIDTH 1000 0
DWIDTH 30 0
BBX 30 30 0 0
BITMAP
00000000
00000000
00000000
00000000
00000000
00000000
00000000
00000000
00000000
00000000
00000000
00000000
00000000
00000000
00000000
00000000
00000000
00000000
00000000
00000000
00000000
00000000
00000000
00000000
00000000
00000000
00000000
00000000
00000000
00000000
ENDCHAR
STARTCHAR C0051
ENCODING -1 81
SWIDTH 1000 0
DWIDTH 30 0
BBX 30 30 0 0
BITMAP
00000000
00000000
00000000
00000000
00000000
00000000
00000000
00000000
00000000
00000000
00000000
00000000
00000000
00000000
00000000
00000000
00000000
00000000
00000000
00000000
00000000
00000000
00000000
00000000
00000000
00000000
00000000
00000000
00000000
00000000
ENDCHAR
STARTCHAR C0052
ENCODING -1 82
SWIDTH 1000 0
DWIDTH 30 0
BBX 30 30 0 0
BITMAP
00000000
00000000
00000000
00000000
00000000
00000000
00000000
00000000
00000000
00000000
00000000
00000000
00000000
00000000
00000000
00000000
00000000
00000000
00000000
00000000
00000000
00000000
00000000
00000000
00000000
00000000
00000000
00000000
00000000
00000000
ENDCHAR
STARTCHAR C0053
ENCODING -1 83
SWIDTH 1000 0
DWIDTH 30 0
BBX 30 30 0 0
BITMAP
00000000
00000000
00000000
00000000
00000000
00000000
00000000
00000000
00000000
00000000
00000000
00000000
00000000
00000000
00000000
00000000
00000000
00000000
00000000
00000000
00000000
00000000
00000000
00000000
00000000
00000000
00000000
00000000
00000000
00000000
ENDCHAR
STARTCHAR C0054
ENCODING -1 84
SWIDTH 1000 0
DWIDTH 30 0
BBX 30 30 0 0
BITMAP
00000000
00000000
00000000
00000000
00000000
00000000
00000000
00000000
00000000
00000000
00000000
00000000
00000000
00000000
00000000
00000000
00000000
00000000
00000000
00000000
00000000
00000000
00000000
00000000
00000000
00000000
00000000
00000000
00000000
00000000
ENDCHAR
STARTCHAR C0055
ENCODING -1 85
SWIDTH 1000 0
DWIDTH 30 0
BBX 30 30 0 0
BITMAP
00000000
00000000
00000000
00000000
00000000
00000000
00000000
00000000
00000000
00000000
00000000
00000000
00000000
00000000
00000000
00000000
00000000
00000000
00000000
00000000
00000000
00000000
00000000
00000000
00000000
00000000
00000000
00000000
00000000
00000000
ENDCHAR
STARTCHAR C0056
ENCODING -1 86
SWIDTH 1000 0
DWIDTH 30 0
BBX 30 30 0 0
BITMAP
00000000
00000000
00000000
00000000
00000000
00000000
00000000
00000000
00000000
00000000
00000000
00000000
00000000
00000000
00000000
00000000
00000000
00000000
00000000
00000000
00000000
00000000
00000000
00000000
00000000
00000000
00000000
00000000
00000000
00000000
ENDCHAR
STARTCHAR C0057
ENCODING -1 87
SWIDTH 1000 0
DWIDTH 30 0
BBX 30 30 0 0
BITMAP
00000000
00000000
00000000
00000000
00000000
00000000
00000000
00000000
00000000
00000000
00000000
00000000
00000000
00000000
00000000
00000000
00000000
00000000
00000000
00000000
00000000
00000000
00000000
00000000
00000000
00000000
00000000
00000000
00000000
00000000
ENDCHAR
STARTCHAR C0058
ENCODING -1 88
SWIDTH 1000 0
DWIDTH 30 0
BBX 30 30 0 0
BITMAP
00000000
00000000
00000000
00000000
00000000
00000000
00000000
00000000
00000000
00000000
00000000
00000000
00000000
00000000
00000000
00000000
00000000
00000000
00000000
00000000
00000000
00000000
00000000
00000000
00000000
00000000
00000000
00000000
00000000
00000000
ENDCHAR
STARTCHAR C0059
ENCODING -1 89
SWIDTH 1000 0
DWIDTH 30 0
BBX 30 30 0 0
BITMAP
00000000
00000000
00000000
00000000
00000000
00000000
00000000
00000000
00000000
00000000
00000000
00000000
00000000
00000000
00000000
00000000
00000000
00000000
00000000
00000000
00000000
00000000
00000000
00000000
00000000
00000000
00000000
00000000
00000000
00000000
ENDCHAR
STARTCHAR C005A
ENCODING -1 90
SWIDTH 1000 0
DWIDTH 30 0
BBX 30 30 0 0
BITMAP
00000000
00000000
00000000
00000000
00000000
00000000
00000000
00000000
00000000
00000000
00000000
00000000
00000000
00000000
00000000
00000000
00000000
00000000
00000000
00000000
00000000
00000000
00000000
00000000
00000000
00000000
00000000
00000000
00000000
00000000
ENDCHAR
STARTCHAR C005B
ENCODING -1 91
SWIDTH 1000 0
DWIDTH 30 0
BBX 30 30 0 0
BITMAP
00000000
00000000
00000000
00000000
00000000
00000000
00000000
00000000
00000000
00000000
00000000
00000000
00000000
00000000
00000000
00000000
00000000
00000000
00000000
00000000
00000000
00000000
00000000
00000000
00000000
00000000
00000000
00000000
00000000
00000000
ENDCHAR
STARTCHAR C005C
ENCODING -1 92
SWIDTH 1000 0
DWIDTH 30 0
BBX 30 30 0 0
BITMAP
00000000
00000000
00000000
00000000
00000000
00000000
00000000
00000000
00000000
00000000
00000000
00000000
00000000
00000000
00000000
00000000
00000000
00000000
00000000
00000000
00000000
00000000
00000000
00000000
00000000
00000000
00000000
00000000
00000000
00000000
ENDCHAR
STARTCHAR C005D
ENCODING -1 93
SWIDTH 1000 0
DWIDTH 30 0
BBX 30 30 0 0
BITMAP
00000000
00000000
00000000
00000000
00000000
00000000
00000000
00000000
00000000
00000000
00000000
00000000
00000000
00000000
00000000
00000000
00000000
00000000
00000000
00000000
00000000
00000000
00000000
00000000
00000000
00000000
00000000
00000000
00000000
00000000
ENDCHAR
STARTCHAR C005E
ENCODING -1 94
SWIDTH 1000 0
DWIDTH 30 0
BBX 30 30 0 0
BITMAP
00000000
00000000
00000000
00000000
00000000
00000000
00000000
00000000
00000000
00000000
00000000
00000000
00000000
00000000
00000000
00000000
00000000
00000000
00000000
00000000
00000000
00000000
00000000
00000000
00000000
00000000
00000000
00000000
00000000
00000000
ENDCHAR
STARTCHAR C005F
ENCODING -1 95
SWIDTH 1000 0
DWIDTH 30 0
BBX 30 30 0 0
BITMAP
00000000
00000000
00000000
00000000
00000000
00000000
00000000
00000000
00000000
00000000
00000000
00000000
00000000
00000000
00000000
00000000
00000000
00000000
00000000
00000000
00000000
00000000
00000000
00000000
00000000
00000000
00000000
00000000
00000000
00000000
ENDCHAR
STARTCHAR C0060
ENCODING -1 96
SWIDTH 1000 0
DWIDTH 30 0
BBX 30 30 0 0
BITMAP
00000000
00000000
00000000
00000000
00020000
00020000
000F8000
000F8000
00020000
00E23800
03FAFE00
07FFFF00
0FFDFF80
0FFDFF80
1FFDFFC0
1FFFFFC0
1F1FC7C0
1F0F87C0
0E0F8380
0E070380
0F070780
07FFFF00
07FFFF00
07BDEF00
07BDEF00
07FFFF00
07FFFF00
00000000
00000000
00000000
ENDCHAR
STARTCHAR C0061
ENCODING -1 97
SWIDTH 1000 0
DWIDTH 30 0
BBX 30 30 0 0
BITMAP
86186184
0C30C30C
18600618
30C00C30
61820060
C30200C0
860F8004
0C0F800C
18020018
30E23800
63FAFE00
C7FFFF00
8FFDFF84
0FFDFF8C
1FFDFFC0
1FFFFFC0
1F1FC7C0
9F0F87C0
8E0F8384
0E07038C
0F070798
07FFFF00
47FFFF00
C7BDEF00
87BDEF04
07FFFF0C
07FFFF18
20000030
60000060
C30C30C0
ENDCHAR
STARTCHAR C0062
ENCODING -1 98
SWIDTH 1000 0
DWIDTH 30 0
BBX 30 30 0 0
BITMAP
00000000
00000000
00000000
00000000
00000000
00000000
00000000
00000000
0C000180
0E000380
0E202380
06306300
0618C300
0618C300
0618C300
0618C300
0318C600
0318C600
031FC600
033FE600
03E03E00
03FFFE00
03FFFE00
03DDDE00
03DDDE00
03FFFE00
03FFFE00
00000000
00000000
00000000
ENDCHAR
STARTCHAR C0063
ENCODING -1 99
SWIDTH 1000 0
DWIDTH 30 0
BBX 30 30 0 0
BITMAP
86186184
0C30C30C
18618618
30C30C30
61861860
C00C3000
80000004
0000000C
0C000188
0E000380
4E202380
C6306300
8618C304
0618C30C
0618C318
0618C310
4318C600
C318C600
831FC604
033FE60C
03E03E18
03FFFE30
43FFFE20
C3DDDE00
83DDDE04
03FFFE0C
03FFFE18
00000030
60000060
C30C30C0
ENDCHAR
STARTCHAR C0064
ENCODING -1 100
SWIDTH 1000 0
DWIDTH 30 0
BBX 30 30 0 0
BITMAP
00000000
00000000
00000000
00000000
00000000
00000000
01C71C00
01FFFC00
01FFFC00
01FFFC00
01FFFC00
003FE000
001FC000
003FE000
003FE000
007FF000
007FF000
00FFF800
00FFF800
01FFFC00
01FFFC00
03FFFE00
03FFFE00
02000200
02000200
03FFFE00
03FFFE00
00000000
00000000
00000000
ENDCHAR
STARTCHAR C0065
ENCODING -1 101
SWIDTH 1000 0
DWIDTH 30 0
BBX 30 30 0 0
BITMAP
86186184
0C30C30C
18618618
30000030
60000060
C0000040
81C71C04
01FFFC0C
11FFFC18
31FFFC30
61FFFC60
C03FE000
801FC004
083FE00C
183FE018
307FF030
607FF060
C0FFF800
80FFF804
01FFFC0C
01FFFC18
23FFFE30
63FFFE20
C2000200
82000204
03FFFE0C
03FFFE18
00000030
60000060
C30C30C0
ENDCHAR
STARTCHAR C0066
ENCODING -1 102
SWIDTH 1000 0
DWIDTH 30 0
BBX 30 30 0 0
BITMAP
00000000
00000000
00000000
00000000
00020000
00070000
000F8000
001FC000
003FC000
003F8000
007F0000
007E3000
007FF000
007FF000
007FF000
007FF000
007DF000
0078F000
003DE000
003DE000
003FE000
001FE000
001FC000
000F8000
000F8000
00070000
03FFFE00
00000000
00000000
00000000
ENDCHAR
STARTCHAR C0067
ENCODING -1 103
SWIDTH 1000 0
DWIDTH 30 0
BBX 30 30 0 0
BITMAP
86186184
0C30C30C
18600618
30C00C30
61820060
C30700C0
860F8184
0C1FC30C
183FC018
303F8030
607F0060
C07E30C0
847FF184
0C7FF10C
187FF018
307FF030
607DF060
C078F0C0
863DE184
0C3DE30C
183FE018
301FE030
601FC060
C00F80C0
800F8004
0007000C
03FFFE18
00000000
40000000
C30C30C0
ENDCHAR
STARTCHAR C0068
ENCODING -1 104
SWIDTH 1000 0
DWIDTH 30 0
BBX 30 30 0 0
BITMAP
00000000
00000000
00000000
00000000
00000000
00000000
003C0000
001F0000
001F8000
003FC000
0077E000
00F7F000
01FFF800
03FFFC00
07FFFC00
07FFFE00
0FF3FE00
0FC3FE00
0707FF00
000FFF00
001FFF00
007FFF80
00FFFF80
03FFFF80
07FFFF80
0C000180
0FFFFF80
00000000
00000000
00000000
ENDCHAR
STARTCHAR C0069
ENCODING -1 105
SWIDTH 1000 0
DWIDTH 30 0
BBX 30 30 0 0
BITMAP
86186184
0C30C30C
18618618
30C00C30
61801860
C30010C0
863C0184
0C1F030C
181F8218
303FC030
6077E060
C0F7F0C0
81FFF804
03FFFC0C
07FFFC18
07FFFE30
0FF3FE20
8FC3FE00
8707FF04
000FFF0C
001FFF18
007FFF80
40FFFF80
C3FFFF80
87FFFF84
0C00018C
0FFFFF98
00000000
40000000
C30C30C0
ENDCHAR
STARTCHAR C006A
ENCODING -1 106
SWIDTH 1000 0
DWIDTH 30 0
BBX 30 30 0 0
BITMAP
00000000
00000000
00000000
00000000
00000000
00000000
00000000
00000000
00070000
001FC000
001FC000
003FE000
003FE000
003FE000
001FC000
001FC000
000F8000
000F8000
000F8000
001FC000
001FC000
001FC000
001FC000
007FF000
01FFFC00
03000600
03FFFE00
00000000
00000000
00000000
ENDCHAR
STARTCHAR C006B
ENCODING -1 107
SWIDTH 1000 0
DWIDTH 30 0
BBX 30 30 0 0
BITMAP
86186184
0C30C30C
18618618
30C20C30
61841860
C30830C0
86000184
0C00030C
18070618
301FC030
601FC060
C23FE0C0
863FE184
0C3FE30C
181FC218
301FC030
600F8060
C20F80C0
860F8184
0C1FC30C
181FC218
301FC030
601FC060
C07FF000
81FFFC04
0300060C
03FFFE18
20000030
60000060
C30C30C0
ENDCHAR
STARTCHAR C006C
ENCODING -1 108
SWIDTH 1000 0
DWIDTH 30 0
BBX 30 30 0 0
BITMAP
00000000
00000000
00000000
00000000
00000000
00000000
00000000
00000000
00000000
00000000
00000000
00000000
00000000
00000000
00000000
00000000
00000000
00000000
00000000
00000000
00000000
00000000
00000000
00000000
00000000
00000000
00000000
00000000
00000000
00000000
ENDCHAR
STARTCHAR C006D
ENCODING -1 109
SWIDTH 1000 0
DWIDTH 30 0
BBX 30 30 0 0
BITMAP
00000000
00000000
00000000
00000000
00000000
00000000
00000000
00000000
00000000
00000000
00000000
00000000
00000000
00000000
00000000
00000000
00000000
00000000
00000000
00000000
00000000
00000000
00000000
00000000
00000000
00000000
00000000
00000000
00000000
00000000
ENDCHAR
STARTCHAR C006E
ENCODING -1 110
SWIDTH 1000 0
DWIDTH 30 0
BBX 30 30 0 0
BITMAP
00000000
00000000
00000000
00000000
00000000
00000000
00000000
00000000
00000000
00000000
00000000
00000000
00000000
00000000
00000000
00000000
00000000
00000000
00000000
00000000
00000000
00000000
00000000
00000000
00000000
00000000
00000000
00000000
00000000
00000000
ENDCHAR
STARTCHAR C006F
ENCODING -1 111
SWIDTH 1000 0
DWIDTH 30 0
BBX 30 30 0 0
BITMAP
00000000
00000000
00000000
00000000
00000000
00000000
00000000
00000000
00000000
00000000
00000000
00000000
00000000
00000000
00000000
00000000
00000000
00000000
00000000
00000000
00000000
00000000
00000000
00000000
00000000
00000000
00000000
00000000
00000000
00000000
ENDCHAR
STARTCHAR C0070
ENCODING -1 112
SWIDTH 1000 0
DWIDTH 30 0
BBX 30 30 0 0
BITMAP
00000000
00000000
00000000
00000000
00000000
00000000
00000000
00000000
00000000
00000000
00000000
00000000
00000000
00000000
00000000
00000000
00000000
00000000
00000000
00000000
00000000
00000000
00000000
00000000
00000000
00000000
00000000
00000000
00000000
00000000
ENDCHAR
STARTCHAR C0071
ENCODING -1 113
SWIDTH 1000 0
DWIDTH 30 0
BBX 30 30 0 0
BITMAP
00000000
00000000
00000000
00000000
00000000
00000000
00000000
00000000
00000000
00000000
00000000
00000000
00000000
00000000
00000000
00000000
00000000
00000000
00000000
00000000
00000000
00000000
00000000
00000000
00000000
00000000
00000000
00000000
00000000
00000000
ENDCHAR
STARTCHAR C0072
ENCODING -1 114
SWIDTH 1000 0
DWIDTH 30 0
BBX 30 30 0 0
BITMAP
00000000
00000000
00000000
00000000
00000000
00000000
00000000
00000000
00000000
00000000
00000000
00000000
00000000
00000000
00000000
00000000
00000000
00000000
00000000
00000000
00000000
00000000
00000000
00000000
00000000
00000000
00000000
00000000
00000000
00000000
ENDCHAR
STARTCHAR C0073
ENCODING -1 115
SWIDTH 1000 0
DWIDTH 30 0
BBX 30 30 0 0
BITMAP
00000000
00000000
00000000
00000000
00000000
00000000
00000000
00000000
00000000
00000000
00000000
00000000
00000000
00000000
00000000
00000000
00000000
00000000
00000000
00000000
00000000
00000000
00000000
00000000
00000000
00000000
00000000
00000000
00000000
00000000
ENDCHAR
STARTCHAR C0074
ENCODING -1 116
SWIDTH 1000 0
DWIDTH 30 0
BBX 30 30 0 0
BITMAP
00000000
00000000
00000000
00000000
00000000
00000000
00000000
00000000
00000000
00000000
00000000
00000000
00000000
00000000
00000000
00000000
00000000
00000000
00000000
00000000
00000000
00000000
00000000
00000000
00000000
00000000
00000000
00000000
00000000
00000000
ENDCHAR
STARTCHAR C0075
ENCODING -1 117
SWIDTH 1000 0
DWIDTH 30 0
BBX 30 30 0 0
BITMAP
00000000
00000000
00000000
00000000
00000000
00000000
00000000
00000000
00000000
00000000
00000000
00000000
00000000
00000000
00000000
00000000
00000000
00000000
00000000
00000000
00000000
00000000
00000000
00000000
00000000
00000000
00000000
00000000
00000000
00000000
ENDCHAR
STARTCHAR C0076
ENCODING -1 118
SWIDTH 1000 0
DWIDTH 30 0
BBX 30 30 0 0
BITMAP
00000000
00000000
00000000
00000000
00000000
00000000
00000000
00000000
00000000
00000000
00000000
00000000
00000000
00000000
00000000
00000000
00000000
00000000
00000000
00000000
00000000
00000000
00000000
00000000
00000000
00000000
00000000
00000000
00000000
00000000
ENDCHAR
STARTCHAR C0077
ENCODING -1 119
SWIDTH 1000 0
DWIDTH 30 0
BBX 30 30 0 0
BITMAP
00000000
00000000
00000000
00000000
00000000
00000000
00000000
00000000
00000000
00000000
00000000
00000000
00000000
00000000
00000000
00000000
00000000
00000000
00000000
00000000
00000000
00000000
00000000
00000000
00000000
00000000
00000000
00000000
00000000
00000000
ENDCHAR
STARTCHAR C0078
ENCODING -1 120
SWIDTH 1000 0
DWIDTH 30 0
BBX 30 30 0 0
BITMAP
00000000
00000000
00000000
00000000
00000000
00000000
00000000
00000000
00000000
00000000
00000000
00000000
00000000
00000000
00000000
00000000
00000000
00000000
00000000
00000000
00000000
00000000
00000000
00000000
00000000
00000000
00000000
00000000
00000000
00000000
ENDCHAR
STARTCHAR C0079
ENCODING -1 121
SWIDTH 1000 0
DWIDTH 30 0
BBX 30 30 0 0
BITMAP
00000000
00000000
00000000
00000000
00000000
00000000
00000000
00000000
00000000
00000000
00000000
00000000
00000000
00000000
00000000
00000000
00000000
00000000
00000000
00000000
00000000
00000000
00000000
00000000
00000000
00000000
00000000
00000000
00000000
00000000
ENDCHAR
STARTCHAR C007A
ENCODING -1 122
SWIDTH 1000 0
DWIDTH 30 0
BBX 30 30 0 0
BITMAP
00000000
00000000
00000000
00000000
00000000
00000000
00000000
00000000
00000000
00000000
00000000
00000000
00000000
00000000
00000000
00000000
00000000
00000000
00000000
00000000
00000000
00000000
00000000
00000000
00000000
00000000
00000000
00000000
00000000
00000000
ENDCHAR
STARTCHAR C007B
ENCODING -1 123
SWIDTH 1000 0
DWIDTH 30 0
BBX 30 30 0 0
BITMAP
00000000
00000000
00000000
00000000
00000000
00000000
00000000
00000000
00000000
00000000
00000000
00000000
00000000
00000000
00000000
00000000
00000000
00000000
00000000
00000000
00000000
00000000
00000000
00000000
00000000
00000000
00000000
00000000
00000000
00000000
ENDCHAR
STARTCHAR C007C
ENCODING -1 124
SWIDTH 1000 0
DWIDTH 30 0
BBX 30 30 0 0
BITMAP
00000000
00000000
00000000
00000000
00000000
00000000
00000000
00000000
00000000
00000000
00000000
00000000
00000000
00000000
00000000
00000000
00000000
00000000
00000000
00000000
00000000
00000000
00000000
00000000
00000000
00000000
00000000
00000000
00000000
00000000
ENDCHAR
STARTCHAR C007D
ENCODING -1 125
SWIDTH 1000 0
DWIDTH 30 0
BBX 30 30 0 0
BITMAP
00000000
00000000
00000000
00000000
00000000
00000000
00000000
00000000
00000000
00000000
00000000
00000000
00000000
00000000
00000000
00000000
00000000
00000000
00000000
00000000
00000000
00000000
00000000
00000000
00000000
00000000
00000000
00000000
00000000
00000000
ENDCHAR
STARTCHAR C007E
ENCODING -1 126
SWIDTH 1000 0
DWIDTH 30 0
BBX 30 30 0 0
BITMAP
00000000
00000000
00000000
00000000
00000000
00000000
00000000
00000000
00000000
00000000
00000000
00000000
00000000
00000000
00000000
00000000
00000000
00000000
00000000
00000000
00000000
00000000
00000000
00000000
00000000
00000000
00000000
00000000
00000000
00000000
ENDCHAR
STARTCHAR C007F
ENCODING -1 127
SWIDTH 1000 0
DWIDTH 30 0
BBX 30 30 0 0
BITMAP
00000000
00000000
00000000
00000000
00000000
00000000
00000000
00000000
00000000
00000000
00000000
00000000
00000000
00000000
00000000
00000000
00000000
00000000
00000000
00000000
00000000
00000000
00000000
00000000
00000000
00000000
00000000
00000000
00000000
00000000
ENDCHAR
ENDFONT
